<?xml version="1.0" encoding="utf-8" ?>
<svg baseProfile="tiny" height="1617" version="1.2" viewBox="20,-1434,1346,1617" width="1346" xmlns="http://www.w3.org/2000/svg" xmlns:ev="http://www.w3.org/2001/xml-events" xmlns:xlink="http://www.w3.org/1999/xlink"><defs /><g transform="scale(1, -1)"><path d="M120 1434H210Q214 1434 214 1430V1403H308Q308 1409 312 1409H404V1419Q405 1423 408 1423H498Q502 1422 502 1419V1401H596V1413Q597 1417 600 1417H690Q694 1417 694 1407H786L792 1411Q947 1413 980 1413V1430Q981 1434 984 1434H1074Q1078 1434 1078 1430V1413H1170Q1174 1412 1174 1409V1398H1268V1419Q1269 1423 1272 1423H1362Q1366 1422 1366 1419V1329Q1366 1325 1362 1325H1270V1300H1362Q1366 1299 1366 1296V1029Q1366 1025 1362 1025Q1174 1024 1174 1021Q1174 1016 1170 1016H1078Q1078 1010 1074 1010H982V889Q982 804 980 655L976 653H886Q882 652 882 649V562Q882 559 878 559H794Q790 559 790 562V651H788Q786 609 786 589V555Q786 551 782 551H698Q694 551 694 555V597Q694 613 692 645H600Q596 645 596 653H504Q500 653 500 657V908Q501 912 504 912H596V931H504Q500 931 500 935V1029H406Q406 1019 402 1019H312Q308 1019 308 1023V1048H214V1023Q214 1019 208 1019Q188 1019 22 1021L20 1025V1209Q21 1213 24 1213H116V1233H24Q20 1233 20 1236V1409Q21 1413 24 1413H116V1430Q117 1434 120 1434ZM118 1336V1307H212V1336ZM982 1336V1330H1076V1336ZM406 1325V1317H500V1325ZM886 1315V1313H980V1315ZM598 1236V1231H692V1236ZM214 1233V1213Q214 1209 210 1209H118V1204H120Q292 1202 308 1202V1233ZM982 1233V1217H1074Q1078 1217 1078 1213V1202H1172V1233ZM406 1219V1206H500V1219ZM502 1140V1133H596V1140ZM694 1131V1127H696Q712 1127 884 1125V1129H882Q866 1129 694 1131ZM886 1125V1121H980V1125ZM1174 1123V1121H1268V1123ZM310 1121V1117H404V1121ZM982 1119V1108H1076V1119ZM594 1035H502V1029H594Q598 1029 598 1017H692Q692 1023 696 1023H788V1029H696Q692 1029 692 1039H600ZM790 952V929H884V952ZM694 925V914H788V925ZM790 831V825H884V831ZM598 758V749L596 739H692V758ZM692 731V722H788V731ZM890 647H974Q978 647 978 641Q976 495 976 470L972 468H892Q888 468 888 472Q886 615 886 645ZM506 643H590Q594 643 594 637Q594 604 592 476L588 474H508Q504 474 504 478Q502 606 502 641ZM602 628H686Q690 627 690 624V622Q690 576 688 478L684 476H604Q600 476 600 480Q598 572 598 622V624Q599 628 602 628ZM796 553H876Q880 552 880 549V468Q880 465 876 465H796Q792 465 792 468V549Q792 553 796 553ZM700 537H780Q784 537 784 534V455L780 449V380Q780 376 776 376H704Q700 376 700 380V449L696 455V534Q696 537 700 537ZM608 457H680Q684 456 684 453V380Q684 376 680 376H608Q604 376 604 380V453Q604 457 608 457ZM896 453H968Q972 452 972 449V374Q972 370 968 370H896Q892 370 892 374V449Q892 453 896 453ZM512 451H584Q588 450 588 447V372Q588 369 584 369H512Q508 369 508 372V447Q508 451 512 451ZM800 428H872Q876 427 876 424V351L872 345V286Q872 282 869 282H803Q800 282 800 286V345L796 351V424Q796 428 800 428ZM611 345H677Q680 345 680 342V274Q680 271 677 271H611Q608 271 608 274V342Q608 345 611 345ZM899 345H965Q968 345 968 342V274Q968 271 965 271H899Q896 271 896 274V342Q896 345 899 345ZM707 336H773Q776 335 776 332V267Q776 263 773 263H707Q704 263 704 267V332Q704 336 707 336ZM515 330H581Q584 330 584 326V259Q584 255 581 255H515Q512 255 512 259V326Q512 330 515 330ZM807 255H865Q869 255 869 251V196Q869 192 865 192H807Q803 192 803 196V251Q804 255 807 255ZM711 251H769Q773 251 773 248V192Q773 188 769 188H711Q707 188 707 192V248Q708 251 711 251ZM519 248H577Q581 247 581 244V188Q581 184 577 184H519Q515 184 515 188V244Q516 248 519 248ZM615 246H673Q677 245 677 242V186Q677 182 673 182H615Q611 182 611 186V242Q612 246 615 246ZM903 242H961Q965 241 965 238V182Q965 178 961 178H903Q899 178 899 182V238Q900 242 903 242ZM621 148H667Q671 147 671 144V100Q671 96 667 96H621Q617 96 617 100V144Q618 148 621 148ZM717 146H763Q767 145 767 142V98Q767 94 763 94H717Q713 94 713 98V142Q714 146 717 146ZM525 142H571Q575 141 575 138V94Q575 90 571 90H525Q521 90 521 94V138Q522 142 525 142ZM813 138H859Q863 138 863 134V88Q863 84 859 84H813Q809 84 809 88V134Q810 138 813 138ZM909 132H955Q959 132 959 129V84Q959 81 955 81H909Q905 81 905 84V129Q906 132 909 132ZM629 52H659Q663 51 663 48V17Q663 13 659 13H629Q625 13 625 17V48Q625 52 629 52ZM917 40H947Q951 40 951 36V4Q951 0 947 0H917Q913 0 913 4V36Q913 40 917 40ZM533 25H563Q567 24 567 21V-12Q567 -15 563 -15H533Q529 -15 529 -12V21Q529 25 533 25ZM821 25H851Q855 24 855 21V-10Q855 -14 851 -14H821Q817 -14 817 -10V21Q817 25 821 25ZM725 21H755Q759 20 759 17V-14Q759 -17 755 -17H725Q721 -17 721 -14V17Q721 21 725 21ZM826 -42H846Q849 -43 849 -46V-65Q849 -69 846 -69H826Q823 -69 823 -65V-46Q823 -42 826 -42ZM538 -71H558Q561 -72 561 -75V-92Q561 -96 558 -96H538Q535 -96 535 -92V-75Q535 -71 538 -71ZM730 -81H750Q753 -81 753 -85V-104Q753 -108 750 -108H730Q727 -108 727 -104V-85Q727 -81 730 -81ZM634 -83H654Q657 -83 657 -87V-106Q657 -110 654 -110H634Q631 -110 631 -106V-87Q631 -83 634 -83ZM922 -83H942Q945 -83 945 -87V-104Q945 -108 942 -108H922Q919 -108 919 -104V-87Q919 -83 922 -83ZM834 -148H838Q842 -149 842 -152V-154Q842 -158 838 -158H834Q830 -158 830 -154V-152Q831 -148 834 -148ZM930 -148H934Q938 -149 938 -152V-156Q938 -159 934 -159H930Q926 -159 926 -156V-152Q927 -148 930 -148ZM546 -167H550Q554 -168 554 -171V-175Q554 -179 550 -179H546Q542 -179 542 -175V-171Q543 -167 546 -167ZM642 -171H646Q650 -172 650 -175V-177Q650 -181 646 -181H642Q638 -181 638 -177V-175Q639 -171 642 -171ZM738 -171H742Q746 -172 746 -175V-179Q746 -183 742 -183H738Q734 -183 734 -179V-175Q735 -171 738 -171Z" fill="#3473ad" /></g></svg>